inDegrees=no
num_controls=7
num_derivatives=13
num_iterations=128
num_multipliers=7
num_parameters=0
num_slacks=7
num_states=26
objective=6.282301
objective_accelerations=0.741984
objective_balance=0.051417
objective_effort=0.632018
objective_height=4.740246
objective_ligament=0.116637
solver_duration=1341.589220
status=Solve_Succeeded
success=true
DataType=double
version=3
OpenSimVersion=4.4-2022-07-23-0e9fedc
endheader
time	/jointset/ground_pelvis/pelvis_tilt/value	/jointset/ground_pelvis/pelvis_tx/value	/jointset/ground_pelvis/pelvis_ty/value	/jointset/hip_l/hip_flexion_l/value	/jointset/hip_l/hip_adduction_l/value	/jointset/hip_l/hip_rotation_l/value	/jointset/back/lumbar_extension/value	/jointset/patellofemoral_l/patellar_flexion_l/value	/jointset/knee_l/knee_flexion_l/value	/jointset/knee_l/knee_adduction_l/value	/jointset/knee_l/knee_rotation_l/value	/jointset/ankle_l/ankle_angle_l/value	/jointset/subtalar_l/subtalar_angle_l/value	/jointset/ground_pelvis/pelvis_tilt/speed	/jointset/ground_pelvis/pelvis_tx/speed	/jointset/ground_pelvis/pelvis_ty/speed	/jointset/hip_l/hip_flexion_l/speed	/jointset/hip_l/hip_adduction_l/speed	/jointset/hip_l/hip_rotation_l/speed	/jointset/back/lumbar_extension/speed	/jointset/patellofemoral_l/patellar_flexion_l/speed	/jointset/knee_l/knee_flexion_l/speed	/jointset/knee_l/knee_adduction_l/speed	/jointset/knee_l/knee_rotation_l/speed	/jointset/ankle_l/ankle_angle_l/speed	/jointset/subtalar_l/subtalar_angle_l/speed	/forceset/tau_hip_flexion_l	/forceset/tau_hip_adduction_l	/forceset/tau_hip_rotation_l	/forceset/tau_knee_flexion_l	/forceset/tau_ankle_angle_l	/forceset/tau_subtalar_angle_l	/forceset/tau_lumbar_extension	lambda_cid13_p0	lambda_cid13_p1	lambda_cid13_p2	lambda_cid13_p3	lambda_cid13_p4	lambda_cid13_p5	lambda_cid14_p0	/jointset/ground_pelvis/pelvis_tilt/accel	/jointset/ground_pelvis/pelvis_tx/accel	/jointset/ground_pelvis/pelvis_ty/accel	/jointset/hip_l/hip_flexion_l/accel	/jointset/hip_l/hip_adduction_l/accel	/jointset/hip_l/hip_rotation_l/accel	/jointset/back/lumbar_extension/accel	/jointset/patellofemoral_l/patellar_flexion_l/accel	/jointset/knee_l/knee_flexion_l/accel	/jointset/knee_l/knee_adduction_l/accel	/jointset/knee_l/knee_rotation_l/accel	/jointset/ankle_l/ankle_angle_l/accel	/jointset/subtalar_l/subtalar_angle_l/accel	gamma_cid13_p0	gamma_cid13_p1	gamma_cid13_p2	gamma_cid13_p3	gamma_cid13_p4	gamma_cid13_p5	gamma_cid14_p0
1.5	-0.09116062013168229	-0.05920331227940675	0.8194317770018552	0.8934278273283595	-0.3173815097425715	-0.1211068016882851	-0.8176506566122957	0.8318794456876727	0.8318794456876719	-0.08334994080243349	-0.1744999982008394	0.09012058322226746	0.006640441929829142	0.572739454814983	0.3113870560730203	0.5597580857700182	-2.550281646713089	0.06499266060916389	-0.6577900677124333	0.819082685896246	-2.137033148934601	-2.137033148934615	-0.188632240671363	-0.0005260150452551521	-0.2844291240298404	-0.01985644241414189	-0.2640273702380167	0.02001482428122379	-0.006935721433408969	-0.2140275447155322	0.119517224673861	0.04298026481122091	0.3182385384053754	-3.584072821536722	-19.10399710375011	3.808122050912866	-15.18528283539085	-664.674536910555	-69.25753949567714	-13.26756060241645	0.319988497571654	0.9628115908938603	-0.7263343818456852	-1.113426916565404	0.5283400963857511	-0.4581201171000872	2.328013992472862	-1.097817965236097	-1.097817965236113	-0.2118549957132308	0.0005954407125508049	-0.3004244590780127	0.4731892845480088	5.127901126469072e-07	4.718483561587231e-07	-2.563751351493302e-06	-2.26423997041785e-07	5.854225725881548e-07	-1.194017605691497e-07	4.174923144661707e-07
1.51	-0.08541756817829385	-0.0560414673769755	0.8249919415109651	0.8678713059487604	-0.316706603136466	-0.1277054160320884	-0.8093447890078928	0.810456666194432	0.8104566661944236	-0.08525064440174536	-0.1745056457916949	0.08726163664562109	0.006463992384162953	0.5757847502017388	0.3209591360689938	0.5521581770852841	-2.560707089247849	0.0699876911211601	-0.6618560135155973	0.8420078816397033	-2.147223226589129	-2.147223226589184	-0.1915104159113201	-0.0005882756574626766	-0.2872686772921849	-0.01540848216777963	-0.2546984063641706	0.01959637540649061	-0.006672032628042731	-0.2101303873179439	0.1182136047197902	0.04234830412328417	0.3097591290545487	-3.663858268320979	-18.91317353479569	3.889188880850527	-14.92947282664329	-658.6681242998707	-69.27354599729232	-14.07931988454686	0.2839241233850993	0.9509497276736194	-0.7941902409869868	-0.9597052158508399	0.4851569071745304	-0.368902448254058	2.262329363235934	-0.934758543577508	-0.9347585435837023	-0.3260293892121266	-0.007838111203716976	-0.2619687121097788	0.4345153343387863	5.114531842510812e-07	6.19195529519187e-07	-2.454401472088883e-06	-2.031275663370198e-07	6.106052692377577e-07	-3.40998299286427e-08	4.202908262269235e-07
1.52	-0.07964663845821567	-0.05278459296984004	0.8304726327073875	0.842220009685021	-0.315981731749522	-0.1343423039612192	-0.800812158046466	0.7889409547490324	0.7889409547490435	-0.08718017587363125	-0.1745115562483958	0.08437704494588809	0.006332805628892093	0.578315008154845	0.3303929570138603	0.5438634232325217	-2.569236623539382	0.07498561677589839	-0.6654447847719496	0.8644353573013408	-2.155619539364316	-2.155619539364413	-0.1943978151942884	-0.0005785882303169558	-0.2895581486464111	-0.01080388433507999	-0.2453694424903665	0.01917792653167442	-0.006408343822308486	-0.2062332299203832	0.1169099847656906	0.04171634343524157	0.3012797197037099	-3.744509132377888	-18.72345215513455	3.971865733417069	-14.71575661346787	-652.7070469917364	-69.3674268261279	-14.87712905348507	0.2169810108413071	0.9351597806727016	-0.865303415451332	-0.7342452679199162	0.5289191249343566	-0.3626852077372288	2.22846997610865	-0.7390649893682375	-0.7390649893682446	-0.2136998043154561	0.01498504858391288	-0.1904080774540717	0.5045168018158447	5.122573024537504e-07	7.566012731088656e-07	-2.362952341191791e-06	-1.852386968002458e-07	6.420003586606742e-07	4.817270079429966e-08	4.234849644389095e-07
1.53	-0.07385296235186194	-0.04943417914475082	0.8358670022313121	0.8164927946163827	-0.3152069491127608	-0.1410131847202778	-0.7920579968582757	0.7673501530832894	0.7673501530833549	-0.08913841020635609	-0.1745173006260827	0.08147224305446246	0.006248347296160738	0.5803301964757709	0.3396556604919783	0.534901499951242	-2.575879813876655	0.07996562426672842	-0.6686605510088819	0.886295161550505	-2.162233276895127	-2.162233276895104	-0.1972439683086082	-0.0005611019104324686	-0.291310215010587	-0.006067287136972035	-0.2360323264024081	0.01862106632454793	-0.006106600238644577	-0.2024082995121491	0.1154419762663181	0.04087847301824648	0.2927183515432321	-3.902345816714209	-18.42613595405147	4.032071386160631	-14.31671754170407	-646.933581537987	-69.31138083966523	-15.66022000619771	0.1803331059720496	0.9166701863484329	-0.9278439570014331	-0.5803060447982687	0.4819105300323075	-0.2899781127487691	2.149477831029808	-0.5764864097656576	-0.5764864097476264	-0.319213617313145	-0.003950382468860312	-0.1537679030836231	0.4614155063432698	5.153362826673209e-07	8.83444247567085e-07	-2.290522755583733e-06	-1.730953610044623e-07	6.799961154052364e-07	1.272264941048297e-07	4.270994557553309e-07
